<svg width="153" height="179" viewBox="0 0 153 179" fill="#faf5f5" xmlns="http://www.w3.org/2000/svg">
<path d="M0.5 130.702V47.4007C0.5 45.7986 1.35174 44.3174 2.73635 43.5115L74.2364 1.89604C75.6356 1.08165 77.3644 1.08165 78.7636 1.89604L150.264 43.5115C151.648 44.3174 152.5 45.7986 152.5 47.4007V130.702C152.5 132.304 151.648 133.785 150.264 134.591L78.7636 176.206C77.3644 177.021 75.6356 177.021 74.2364 176.206L2.73635 134.591C1.35174 133.785 0.5 132.304 0.5 130.702Z" fill="#faf5f5" fill-opacity="0.1" stroke="#C6CBD0"/>
<path d="M32.2209 125.454C31.9258 125.283 31.6362 125.105 31.3524 124.92L31.0795 125.339C30.4921 124.956 29.9286 124.545 29.3904 124.108L29.7056 123.72C29.1759 123.29 28.6713 122.834 28.1933 122.354L27.8393 122.707C27.3457 122.213 26.8798 121.693 26.4428 121.152L26.8318 120.838C26.4041 120.309 26.005 119.758 25.6359 119.188L25.2162 119.46C24.8372 118.875 24.4889 118.271 24.1728 117.649L24.6185 117.423C24.3107 116.818 24.0343 116.196 23.7907 115.561L23.3239 115.74C23.075 115.09 22.8595 114.427 22.6788 113.752L23.1618 113.622C22.9869 112.968 22.8454 112.303 22.7389 111.629L22.2451 111.707C22.1369 111.022 22.0638 110.329 22.0272 109.629L22.5266 109.603C22.5089 109.264 22.5 108.924 22.5 108.583V107.58H22V105.573H22.5V103.567H22V101.56H22.5V99.5533H22V97.5466H22.5V95.5399H22V93.5332H22.5V91.5266H22V89.5199H22.5V87.5132H22V85.5065H22.5V83.4999H22V81.4932H22.5V79.4865H22V77.4798H22.5V75.4732H22V73.4665H22.5V71.4598H22V69.4531H22.5V68.4498C22.5 68.1087 22.5089 67.7688 22.5266 67.4305L22.0272 67.4045C22.0638 66.7043 22.1369 66.0107 22.2451 65.326L22.7389 65.404C22.8454 64.73 22.9869 64.0648 23.1618 63.4108L22.6788 63.2816C22.8595 62.6064 23.075 61.9429 23.3239 61.2936L23.7907 61.4726C24.0343 60.8371 24.3107 60.2156 24.6185 59.6105L24.1728 59.3838C24.4889 58.7624 24.8372 58.158 25.2162 57.5729L25.6359 57.8448C26.005 57.2751 26.4041 56.7243 26.8318 56.1949L26.4428 55.8807C26.8798 55.3397 27.3457 54.8205 27.8393 54.3257L28.1933 54.6787C28.6713 54.1994 29.1759 53.7435 29.7056 53.3133L29.3905 52.9252C29.9286 52.4881 30.4921 52.0771 31.0795 51.6944L31.3524 52.1133C31.6362 51.9284 31.9258 51.7502 32.2209 51.5791L33.0834 51.0792L32.8327 50.6466L34.5577 49.6467L34.8084 50.0793L36.5334 49.0794L36.2827 48.6468L38.0077 47.6469L38.2584 48.0795L39.9834 47.0796L39.7327 46.647L41.4577 45.6471L41.7084 46.0797L43.4334 45.0798L43.1827 44.6473L44.9077 43.6474L45.1584 44.0799L46.8834 43.0801L46.6327 42.6475L48.3577 41.6476L48.6084 42.0802L50.3334 41.0803L50.0827 40.6477L51.8077 39.6478L52.0584 40.0804L53.7834 39.0805L53.5327 38.6479L55.2577 37.648L55.5084 38.0806L57.2334 37.0807L56.9827 36.6481L58.7077 35.6482L58.9585 36.0808L60.6834 35.0809L60.4327 34.6483L62.1577 33.6484L62.4084 34.081L64.1334 33.0811L63.8827 32.6485L65.6077 31.6487L65.8584 32.0812L66.7209 31.5813C67.0176 31.4094 67.3176 31.2459 67.6206 31.0908L67.3929 30.6457C68.0201 30.3248 68.6602 30.0391 69.3102 29.7886L69.49 30.2551C70.1299 30.0085 70.7797 29.7969 71.4367 29.6203L71.3069 29.1375C71.9852 28.9551 72.6709 28.8092 73.3611 28.6996L73.4395 29.1934C74.115 29.0861 74.7948 29.0146 75.4761 28.9788L75.4499 28.4795C76.1495 28.4428 76.8505 28.4428 77.5501 28.4795L77.5239 28.9788C78.2052 29.0146 78.885 29.0861 79.5605 29.1934L79.6389 28.6996C80.3291 28.8092 81.0148 28.9551 81.6931 29.1375L81.5633 29.6203C82.2203 29.7969 82.8701 30.0085 83.51 30.2551L83.6898 29.7886C84.3398 30.0391 84.9799 30.3248 85.6071 30.6457L85.3794 31.0908C85.6824 31.2459 85.9824 31.4094 86.2791 31.5813L87.1416 32.0812L87.3923 31.6487L89.1173 32.6485L88.8666 33.0811L90.5916 34.081L90.8423 33.6484L92.5673 34.6483L92.3166 35.0809L94.0416 36.0808L94.2923 35.6482L96.0173 36.6481L95.7666 37.0807L97.4916 38.0806L97.7423 37.648L99.4673 38.6479L99.2166 39.0805L100.942 40.0804L101.192 39.6478L102.917 40.6477L102.667 41.0803L104.392 42.0802L104.642 41.6476L106.367 42.6475L106.117 43.0801L107.842 44.0799L108.092 43.6474L109.817 44.6473L109.567 45.0798L111.292 46.0797L111.542 45.6471L113.267 46.647L113.017 47.0796L114.742 48.0795L114.992 47.6469L116.717 48.6468L116.467 49.0794L118.192 50.0793L118.442 49.6467L120.167 50.6466L119.917 51.0792L120.779 51.5791C121.074 51.7502 121.364 51.9284 121.648 52.1133L121.921 51.6944C122.508 52.0771 123.071 52.4881 123.61 52.9252L123.294 53.3133C123.824 53.7435 124.329 54.1994 124.807 54.6787L125.161 54.3257C125.654 54.8205 126.12 55.3397 126.557 55.8807L126.168 56.1949C126.596 56.7243 126.995 57.2751 127.364 57.8448L127.784 57.5729C128.163 58.158 128.511 58.7624 128.827 59.3838L128.382 59.6105C128.689 60.2156 128.966 60.8371 129.209 61.4726L129.676 61.2936C129.925 61.9429 130.141 62.6064 130.321 63.2816L129.838 63.4108C130.013 64.0648 130.155 64.73 130.261 65.404L130.755 65.326C130.863 66.0107 130.936 66.7044 130.973 67.4045L130.473 67.4305C130.491 67.7688 130.5 68.1087 130.5 68.4498V69.4532H131V71.4598H130.5V73.4665H131V75.4732H130.5V77.4799H131V79.4865H130.5V81.4932H131V83.4999H130.5V85.5065H131V87.5132H130.5V89.5199H131V91.5266H130.5V93.5332H131V95.5399H130.5V97.5466H131V99.5533H130.5V101.56H131V103.567H130.5V105.573H131V107.58H130.5V108.583C130.5 108.924 130.491 109.264 130.473 109.603L130.973 109.629C130.936 110.329 130.863 111.022 130.755 111.707L130.261 111.629C130.155 112.303 130.013 112.968 129.838 113.622L130.321 113.752C130.141 114.427 129.925 115.09 129.676 115.74L129.209 115.561C128.966 116.196 128.689 116.818 128.382 117.423L128.827 117.649C128.511 118.271 128.163 118.875 127.784 119.46L127.364 119.188C126.995 119.758 126.596 120.309 126.168 120.838L126.557 121.152C126.12 121.693 125.654 122.213 125.161 122.707L124.807 122.354C124.329 122.834 123.824 123.29 123.294 123.72L123.61 124.108C123.071 124.545 122.508 124.956 121.921 125.339L121.648 124.92C121.364 125.105 121.074 125.283 120.779 125.454L119.917 125.954L120.167 126.387L118.442 127.386L118.192 126.954L116.467 127.954L116.717 128.386L114.992 129.386L114.742 128.954L113.017 129.953L113.267 130.386L111.542 131.386L111.292 130.953L109.567 131.953L109.817 132.386L108.092 133.386L107.842 132.953L106.117 133.953L106.367 134.386L104.642 135.386L104.392 134.953L102.667 135.953L102.917 136.385L101.192 137.385L100.942 136.953L99.2166 137.953L99.4673 138.385L97.7423 139.385L97.4916 138.953L95.7666 139.952L96.0173 140.385L94.2923 141.385L94.0416 140.952L92.3166 141.952L92.5673 142.385L90.8423 143.385L90.5916 142.952L88.8666 143.952L89.1173 144.385L87.3923 145.384L87.1416 144.952L86.2791 145.452C85.9824 145.624 85.6824 145.787 85.3794 145.942L85.6071 146.387C84.9799 146.708 84.3399 146.994 83.6898 147.245L83.51 146.778C82.8701 147.025 82.2203 147.236 81.5633 147.413L81.6931 147.896C81.0148 148.078 80.3291 148.224 79.6389 148.334L79.5605 147.84C78.885 147.947 78.2052 148.018 77.5239 148.054L77.5501 148.554C76.8505 148.59 76.1495 148.59 75.4499 148.554L75.4761 148.054C74.7948 148.018 74.115 147.947 73.4395 147.84L73.3611 148.334C72.6709 148.224 71.9852 148.078 71.3069 147.896L71.4367 147.413C70.7797 147.236 70.1299 147.025 69.49 146.778L69.3102 147.245C68.6602 146.994 68.0201 146.708 67.3929 146.387L67.6206 145.942C67.3176 145.787 67.0176 145.624 66.7209 145.452L65.8584 144.952L65.6077 145.384L63.8827 144.385L64.1334 143.952L62.4084 142.952L62.1577 143.385L60.4327 142.385L60.6834 141.952L58.9584 140.952L58.7077 141.385L56.9827 140.385L57.2334 139.952L55.5084 138.953L55.2577 139.385L53.5327 138.385L53.7834 137.953L52.0584 136.953L51.8077 137.385L50.0827 136.385L50.3334 135.953L48.6084 134.953L48.3577 135.386L46.6327 134.386L46.8834 133.953L45.1584 132.953L44.9077 133.386L43.1827 132.386L43.4334 131.953L41.7084 130.953L41.4577 131.386L39.7327 130.386L39.9834 129.953L38.2584 128.954L38.0077 129.386L36.2827 128.386L36.5334 127.954L34.8084 126.954L34.5577 127.386L32.8327 126.386L33.0834 125.954L32.2209 125.454Z" stroke="#C6CBD0" stroke-dasharray="2 2"/>
<path d="M3.15234 48.1953L149.84 132.675" stroke="#C6CBD0" stroke-width="0.85" stroke-dasharray="1.7 1.7"/>
<path d="M149.84 48.1953L3.15257 132.675" stroke="#C6CBD0" stroke-width="0.85" stroke-dasharray="1.7 1.7"/>
<path d="M76.0898 8.07422L76.0899 171.78" stroke="#C6CBD0" stroke-width="0.85" stroke-dasharray="1.7 1.7"/>
</svg>
