<svg xmlns="http://www.w3.org/2000/svg" viewBox="0 0 76.17 71.82"><defs><style>.f683bb56-cc8c-4c59-b99d-12e38512a2b7{fill:#e6e6e6;}.ae474362-998b-483c-b5e7-43492a7c6fec{fill:#848484;}</style></defs><title>자산 68</title><g id="bf06c3a7-0e3c-433e-b879-cae8e76f5136" data-name="레이어 2"><g id="a74d8cd0-2188-4cce-bf54-1e37054d82e6" data-name="레이어 1"><path class="f683bb56-cc8c-4c59-b99d-12e38512a2b7" d="M45.57,61.74h-15S29,68.35,18.44,70.82H57.73C47.15,68.35,45.57,61.74,45.57,61.74Z"/><path class="ae474362-998b-483c-b5e7-43492a7c6fec" d="M57.73,71.82H18.44a1,1,0,0,1-.22-2c9.86-2.31,11.39-8.28,11.4-8.34a1,1,0,0,1,1-.77h15a1,1,0,0,1,1,.76c.06.26,1.64,6.06,11.41,8.35a1,1,0,0,1,.76,1.09A1,1,0,0,1,57.73,71.82Zm-33.51-2H52c-4.73-2.39-6.5-5.62-7.09-7.08H31.31C30.72,64.2,29,67.43,24.22,69.82Z"/><path class="f683bb56-cc8c-4c59-b99d-12e38512a2b7" d="M1,51.61a9.94,9.94,0,0,0,9.94,9.94H65.23a9.94,9.94,0,0,0,9.94-9.94V49.44H1Z"/><path class="ae474362-998b-483c-b5e7-43492a7c6fec" d="M65.23,62.55H10.94A11,11,0,0,1,0,51.61V48.44H76.17v3.17A11,11,0,0,1,65.23,62.55ZM2,50.44v1.17a9,9,0,0,0,8.94,8.94H65.23a9,9,0,0,0,8.94-8.94V50.44Z"/><path class="f683bb56-cc8c-4c59-b99d-12e38512a2b7" d="M65.23,1H10.94A9.94,9.94,0,0,0,1,10.94v38.5H75.17V10.94A9.94,9.94,0,0,0,65.23,1Z"/><path class="ae474362-998b-483c-b5e7-43492a7c6fec" d="M76.17,50.44H0V10.94A11,11,0,0,1,10.94,0H65.23A11,11,0,0,1,76.17,10.94ZM2,48.44H74.17V10.94A9,9,0,0,0,65.23,2H10.94A9,9,0,0,0,2,10.94Z"/><rect class="ae474362-998b-483c-b5e7-43492a7c6fec" x="35.82" y="53.98" width="4.54" height="3.03" rx="1"/></g></g></svg>