<svg xmlns="http://www.w3.org/2000/svg" viewBox="0 0 68.48 73.75"><defs><style>.b56001d3-6808-43b2-a6a1-36fec6e727f1{fill:#74c63e;}.ed07c9b1-3cbe-41c9-8624-33f450ece4a6{fill:#333;}</style></defs><title>자산 90</title><g id="a6a2d736-4dff-4b7c-ab0c-6aedc37fcc33" data-name="레이어 2"><g id="a0007324-b94d-4236-a7e1-6437265bcad0" data-name="레이어 1"><path class="b56001d3-6808-43b2-a6a1-36fec6e727f1" d="M58.78,53.93H0V32.11H58.78ZM2,51.93H56.78V34.11H2Z"/><path class="b56001d3-6808-43b2-a6a1-36fec6e727f1" d="M58.78,34.11H0V17.51a5.76,5.76,0,0,1,5.75-5.75H53a5.77,5.77,0,0,1,5.76,5.75ZM2,32.11H56.78V17.51A3.76,3.76,0,0,0,53,13.76H5.75A3.75,3.75,0,0,0,2,17.51Z"/><path class="b56001d3-6808-43b2-a6a1-36fec6e727f1" d="M53,73.75H5.75A5.76,5.76,0,0,1,0,68V51.93H58.78V68A5.77,5.77,0,0,1,53,73.75ZM2,53.93V68a3.76,3.76,0,0,0,3.75,3.76H53A3.77,3.77,0,0,0,56.78,68V53.93Z"/><rect class="b56001d3-6808-43b2-a6a1-36fec6e727f1" x="6.36" y="20.26" width="15" height="4.28" rx="1.41"/><rect class="b56001d3-6808-43b2-a6a1-36fec6e727f1" x="6.36" y="40.61" width="15" height="4.28" rx="1.41"/><circle class="b56001d3-6808-43b2-a6a1-36fec6e727f1" cx="50.81" cy="43.29" r="1.61"/><circle class="b56001d3-6808-43b2-a6a1-36fec6e727f1" cx="45.46" cy="43.29" r="1.61"/><circle class="b56001d3-6808-43b2-a6a1-36fec6e727f1" cx="55.07" cy="13.42" r="13.42"/><path class="ed07c9b1-3cbe-41c9-8624-33f450ece4a6" d="M56,16.23a.14.14,0,0,0-.19,0l-1.89,1.9a2.35,2.35,0,0,1-3.33-3.33l1.9-1.89a.14.14,0,0,0,0-.19l-.65-.65a.13.13,0,0,0-.18,0L49.73,14a3.53,3.53,0,1,0,5,5l1.89-1.9a.13.13,0,0,0,0-.18Zm4.21-7.72a3.51,3.51,0,0,0-5,0L53.3,10.4a.13.13,0,0,0,0,.18l.65.65a.13.13,0,0,0,.18,0L56,9.34a2.35,2.35,0,0,1,3.32,3.32l-1.89,1.9a.13.13,0,0,0,0,.18l.65.65a.13.13,0,0,0,.18,0l1.89-1.89a3.52,3.52,0,0,0,0-5Zm-3.62,3a.12.12,0,0,0-.19,0l-3.69,3.69a.13.13,0,0,0,0,.18l.65.65a.13.13,0,0,0,.18,0l3.69-3.7a.13.13,0,0,0,0-.18Z"/><path class="b56001d3-6808-43b2-a6a1-36fec6e727f1" d="M19.64,62.65a5.9,5.9,0,0,1,.42-2.36A4.15,4.15,0,0,1,20.92,59a3.52,3.52,0,0,1,1.19-.83,5.07,5.07,0,0,1,2-.36,4.34,4.34,0,0,1,3.26,1.26,5.65,5.65,0,0,1,0,7,4.29,4.29,0,0,1-3.24,1.26,4.33,4.33,0,0,1-3.27-1.26A4.73,4.73,0,0,1,19.64,62.65Zm1.91-.06A3.41,3.41,0,0,0,22.28,65a2.47,2.47,0,0,0,3.65,0,3.51,3.51,0,0,0,.72-2.4A3.44,3.44,0,0,0,26,60.2a2.33,2.33,0,0,0-1.84-.78,2.37,2.37,0,0,0-1.85.79A3.49,3.49,0,0,0,21.55,62.59Z"/><path class="b56001d3-6808-43b2-a6a1-36fec6e727f1" d="M30,67.2V58h1.81l3.77,6.15V58h1.72V67.2H35.48l-3.71-6v6Z"/></g></g></svg>